<svg xmlns="http://www.w3.org/2000/svg" width="149" height="38" fill="none"><path fill="#153CF5" d="M48.092 14.551c0-2.653-2.58-5.47-7.044-5.47-5.014 0-10.521 3.677-11.363 11.014-.86 7.41 3.751 10.704 8.399 10.704 4.647 0 7.08-1.811 9.57-4.226-2.142-2.69-4.905-1.446-5.435-1.172-.586.293-1.336.696-2.873.696-1.793 0-3.623-.805-3.623-4.154 11.491-1.134 12.37-4.739 12.37-7.392Zm-5.69.44c-.073.823-.403 2.232-6.221 3.018 1.226-4.354 3.568-4.684 4.647-4.684 1.007 0 1.647.787 1.574 1.665Zm-19.469.713s-2.47 7.758-2.671 8.398c-.073-.658-1.885-14.583-1.885-14.583-4.208 0-6.459 3.001-7.648 6.166 0 0-3 7.777-3.257 8.436-.018-.604-.457-8.344-.457-8.344-.257-3.88-3.806-6.24-6.68-6.24l3.477 21.097c4.41-.018 6.789-3 8.033-6.166 0 0 2.653-6.861 2.763-7.172.018.292 1.903 13.338 1.903 13.338 4.428 0 6.807-2.799 8.087-5.855l6.203-15.241c-4.373 0-6.678 2.982-7.868 6.166Zm41.407-6.66c-2.726 0-4.812 1.482-6.568 3.659v-.018L59.345.005c-3.623 0-6.569 3.147-7.136 7.83L49.465 30.47c2.086 0 4.3-.604 5.489-2.14 1.061 1.371 2.653 2.47 5.013 2.47 6.112 0 10.302-7.1 10.302-13.76-.037-6.075-2.983-7.996-5.928-7.996Zm-.567 10.886c-.64 3.715-2.708 6.24-4.702 6.24-2.013 0-2.873-.897-2.873-.897.384-3.257.622-5.251 1.354-6.971.732-1.72 2.47-4.464 4.282-4.464 1.775 0 2.58 2.36 1.94 6.092ZM85.53 9.538h-4.263l.018-.22c.293-2.781.951-4.245 3.129-4.483 1.482-.146 2.14-.915 2.305-1.756.128-.66.53-2.946.53-2.946-8.562-.055-11.252 3.64-11.947 9.276l-.019.129h-.091c-1.39 0-2.928 1.573-3.184 3.568l-.091.732h2.854l-2.397 19.797-.732 3.55c.092 0 .201.018.293.018 4.007-.146 6.569-3.312 7.136-7.904l1.866-15.461h1.336c1.317 0 2.854-1.318 3.129-3.514l.128-.786Zm22.176-.366c-4.922 0-9.57 3.622-10.996 9.313-1.428 5.69.732 12.424 7.977 12.424 7.228 0 11.4-7.008 11.4-12.845 0-5.8-3.934-8.892-8.381-8.892Zm1.995 10.575c-.256 2.58-1.391 6.496-4.501 6.496-3.129 0-2.69-4.574-2.379-6.752.329-2.323 1.629-5.635 4.428-5.635 2.507 0 2.745 2.982 2.452 5.891Zm30.703-4.043s-2.47 7.758-2.671 8.398c-.074-.658-1.885-14.583-1.885-14.583-4.208 0-6.459 3.001-7.648 6.166 0 0-3.001 7.777-3.257 8.436-.019-.604-.458-8.344-.458-8.344-.256-3.88-3.806-6.24-6.678-6.24l3.458 21.097c4.41-.018 6.788-3 8.032-6.166 0 0 2.654-6.861 2.745-7.172.037.292 1.903 13.338 1.903 13.338 4.428 0 6.807-2.799 8.088-5.855l6.202-15.241c-4.354 0-6.66 2.982-7.831 6.166ZM89.554.133 85.968 29.06l-.732 3.568c.092 0 .201.018.293.018 3.86-.055 6.605-3.44 7.118-7.703l2.067-16.596c.622-5.068-2.397-8.215-5.16-8.215Z"/></svg>