<svg xmlns="http://www.w3.org/2000/svg" width="151" height="31" fill="none"><path fill="#1877F2" d="M9.566 29.624h-5.69V15.441H0v-4.618h3.876V7.537C3.876 3.643 5.59.85 11.265.85c1.2 0 3.084.242 3.084.242V5.38h-1.98c-2.015 0-2.803.613-2.803 2.309v3.134h4.707l-.419 4.618H9.566v14.183Zm13.055-19.17c-.083 0-.168.003-.253.005-5.275 0-7.69 3.968-7.69 9.602 0 7.096 3.132 9.936 7.732 9.936 2.631 0 4.36-1.107 5.411-3.174v2.803h5.412V10.825h-5.412v2.891c-.858-1.86-2.635-3.24-5.2-3.262Zm1.376 4.442c2.216 0 3.546 1.546 3.546 4.175l.005 2.685c0 1.772-1.098 3.845-3.55 3.845-3.771 0-3.67-4.071-3.67-5.427 0-4.561 2.008-5.278 3.67-5.278Zm11.422 5.33c0-2.284-.11-9.76 9.63-9.76 3.91 0 5.543 1.243 5.543 1.243l-1.313 4.07s-1.63-.898-3.755-.898c-2.72 0-4.457 1.578-4.457 4.353l.003 1.99c0 2.667 1.675 4.447 4.46 4.447 1.935 0 3.72-.906 3.72-.906l1.308 3.985S49.065 30 45.077 30c-9.274 0-9.658-6.706-9.658-9.774Zm46.903-9.767c5.276 0 7.728 3.968 7.728 9.602 0 7.096-3.131 9.936-7.73 9.936-2.632 0-4.578-1.107-5.629-3.174v2.803l-5.344-.002V1.422l5.674-.495v12.534c.819-2.193 3.51-3.002 5.302-3.002Zm-1.59 4.437c-2.216 0-3.711 1.546-3.711 4.175l-.005 2.685c-.004 1.772 1.035 3.845 3.716 3.845 3.77 0 3.67-4.071 3.67-5.427 0-4.561-2.01-5.278-3.67-5.278Zm-20.296-4.422c-5.984 0-9.144 3.263-9.144 9.06v1.078c0 7.525 4.437 9.463 9.726 9.463 5.14 0 7.468-1.438 7.468-1.438l-1.062-3.83s-2.737 1.165-5.726 1.165c-3.098 0-4.43-.79-4.772-3.767h12.013v-3.072c0-6.29-3.545-8.659-8.504-8.659Zm.144 3.835c2.071 0 3.413 1.27 3.34 4.216h-6.984c.121-3.1 1.569-4.216 3.644-4.216Zm40.783-3.86c-6.145 0-9.38 3.463-9.38 9.668 0 8.515 5.576 9.886 9.39 9.886 5.584 0 9.298-3.006 9.298-9.808 0-7.08-4.176-9.747-9.308-9.747Zm-.077 4.463c2.702 0 3.773 2.022 3.773 4.324v1.98c0 2.788-1.499 4.4-3.784 4.4-2.136 0-3.638-1.508-3.638-4.4v-1.98c0-3.085 1.787-4.324 3.649-4.324Zm20.688-4.464c-6.145 0-9.38 3.463-9.38 9.67 0 8.514 5.576 9.885 9.39 9.885 5.583 0 9.298-3.006 9.298-9.808 0-7.08-4.177-9.747-9.308-9.747Zm-.078 4.464c2.703 0 3.773 2.022 3.773 4.324v1.98c0 2.788-1.498 4.4-3.783 4.4-2.137 0-3.639-1.508-3.639-4.4v-1.98c0-3.085 1.788-4.324 3.649-4.324Zm11.53 14.712V1.422l5.69-.495V19.83l5.645-9.007h6.009l-5.889 9.329 6.116 9.472h-6.026l-5.855-9.197v9.197h-5.69Z"/></svg>