<svg xmlns="http://www.w3.org/2000/svg" width="113" height="31" fill="none"><g clip-path="url(#a)"><path fill="#CED3D9" d="M83.25 2.89c0-1.187.984-2.15 2.197-2.15h25.339c1.214 0 2.198.963 2.198 2.15v25.702c0 1.186-.984 2.148-2.198 2.148H85.447c-1.213 0-2.197-.962-2.197-2.148V2.889ZM.015 25.87h12.409v-4.085H4.507V6.202H.015V25.87Zm18.692 0V12.323h-4.492V25.87h4.491ZM16.46 10.474c1.566 0 2.541-1.04 2.541-2.341-.03-1.33-.975-2.34-2.51-2.34-1.537 0-2.542 1.011-2.542 2.34 0 1.3.975 2.34 2.482 2.34h.03Zm4.33 15.396h4.491v-7.566c0-.404.03-.81.148-1.098.325-.809 1.064-1.647 2.304-1.647 1.626 0 2.276 1.243 2.276 3.063v7.247h4.49v-7.767c0-4.161-2.215-6.097-5.17-6.097-2.423 0-3.487 1.358-4.078 2.283h.03v-1.965h-4.49c.059 1.271 0 13.547 0 13.547ZM40.837 6.202h-4.49V25.87h4.49v-4.392l1.123-1.417 3.516 5.809H51l-5.909-8.41 5.17-5.72h-5.406s-3.693 5.118-4.019 5.725V6.202Z"/><path fill="#CED3D9" d="M63.01 20.22a11 11 0 0 0 .148-1.77c0-3.502-1.774-7.057-6.442-7.057-4.993 0-7.298 3.959-7.298 7.55 0 4.441 2.807 7.215 7.712 7.215 1.95 0 3.752-.288 5.23-.895l-.591-2.974c-1.212.403-2.453.605-3.99.605-2.097 0-3.928-.864-4.076-2.704l9.306.028v.001Zm-9.337-3.047c.119-1.156.887-2.861 2.808-2.861 2.038 0 2.511 1.82 2.511 2.861h-5.318Zm20.57-10.97v6.808h-.06c-.65-.953-2.009-1.589-3.81-1.589-3.458 0-6.5 2.774-6.472 7.513 0 4.392 2.749 7.253 6.175 7.253 1.862 0 3.634-.81 4.521-2.37h.089l.177 2.052h3.989a75.64 75.64 0 0 1-.119-4.219V6.202h-4.49Zm0 13.397c0 .346-.03.693-.09.981-.264 1.244-1.328 2.11-2.628 2.11-1.861 0-3.073-1.503-3.073-3.872 0-2.225 1.035-4.016 3.102-4.016 1.389 0 2.364.953 2.63 2.137.059.261.059.55.059.81v1.85Z"/><path fill="#fff" d="M92.263 25.853V12.306h-4.49v13.547h4.49Zm-2.245-15.396c1.566 0 2.541-1.04 2.541-2.34-.03-1.33-.975-2.34-2.51-2.34-1.538 0-2.542 1.01-2.542 2.34 0 1.3.975 2.34 2.482 2.34h.03Zm4.73 15.396h4.492V18.29c0-.405.029-.81.148-1.099.324-.809 1.063-1.647 2.304-1.647 1.625 0 2.275 1.243 2.275 3.064v7.246h4.49v-7.767c0-4.16-2.215-6.097-5.17-6.097-2.422 0-3.486 1.357-4.077 2.282h.03v-1.964h-4.49c.058 1.27-.001 13.546-.001 13.546Z"/></g><defs><clipPath id="a"><path fill="#fff" d="M0 .74h113v30H0z"/></clipPath></defs></svg>