<svg xmlns="http://www.w3.org/2000/svg" width="124" height="25" fill="none"><path fill="#CED3D9" d="M9.705 3.86c-1.453 0-1.889.639-1.889 2.062v2.354h3.893l-.377 3.835H7.816v11.593H3.138V12.111H0V8.305h3.138V6.01c0-3.894 1.569-5.928 5.898-5.928.901 0 1.83.058 2.732.175V3.86M12.03 15.51c0-4.3 2.033-7.554 6.333-7.554 2.325 0 3.748 1.192 4.446 2.702V8.306h4.474v15.428H22.78V21.41c-.64 1.482-2.121 2.644-4.446 2.644-4.271 0-6.334-3.225-6.334-7.554l.03-.988Zm4.677 1.047c0 2.295.843 3.835 3.022 3.835 1.918 0 2.876-1.395 2.876-3.603V15.22c0-2.208-.988-3.603-2.876-3.603-2.18 0-3.022 1.511-3.022 3.836v1.104ZM36.988 7.956c1.801 0 3.545.378 4.474 1.046l-1.046 3.313a7.153 7.153 0 0 0-3.108-.698c-2.528 0-3.633 1.453-3.633 3.952v.9c0 2.5 1.105 3.952 3.633 3.952a7.18 7.18 0 0 0 3.108-.726l1.046 3.312c-.93.64-2.644 1.046-4.474 1.046-5.492 0-7.961-2.934-7.961-7.67v-.727c0-4.736 2.47-7.7 7.96-7.7M42.073 16.586V15.22c0-4.387 2.498-7.264 7.583-7.264 4.794 0 6.915 2.906 6.915 7.206v2.47h-9.82c.087 2.12 1.046 3.05 3.632 3.05 1.685 0 3.37-.319 4.968-.93l.843 3.197c-1.22.64-3.748 1.133-5.986 1.133-5.927-.029-8.135-2.963-8.135-7.496Zm4.678-2.034h5.636v-.378c0-1.685-.668-3.022-2.73-3.022-2.093 0-2.906 1.337-2.906 3.4ZM73.889 16.499c0 4.3-2.063 7.554-6.364 7.554-2.324 0-3.951-1.162-4.59-2.644v2.325h-4.417V.547L63.196.14v10.315c.668-1.365 2.18-2.47 4.359-2.47 4.27 0 6.363 3.226 6.363 7.555l-.03.959Zm-4.678-1.075c0-2.18-.843-3.807-3.08-3.807-1.918 0-2.935 1.366-2.935 3.574v1.627c0 2.209 1.046 3.574 2.935 3.574 2.237 0 3.08-1.627 3.08-3.806v-1.162ZM75.429 16.382v-.784c0-4.446 2.527-7.642 7.67-7.642s7.671 3.196 7.671 7.642v.784c0 4.446-2.528 7.642-7.67 7.642-5.144 0-7.671-3.167-7.671-7.642Zm10.692-1.104c0-2.034-.843-3.66-3.022-3.66s-3.022 1.626-3.022 3.66v1.453c0 2.034.843 3.661 3.022 3.661 2.18 0 3.022-1.627 3.022-3.66v-1.454ZM92.368 16.382v-.784c0-4.446 2.528-7.642 7.671-7.642 5.143 0 7.67 3.196 7.67 7.642v.784c0 4.446-2.527 7.642-7.67 7.642s-7.671-3.167-7.671-7.642Zm10.693-1.104c0-2.034-.843-3.66-3.022-3.66-2.18 0-3.022 1.626-3.022 3.66v1.453c0 2.034.843 3.661 3.022 3.661s3.022-1.627 3.022-3.66v-1.454ZM114.131 15.656l4.62-7.38h4.939l-4.823 7.642 5.026 7.816h-4.968l-4.794-7.555v7.555h-4.649V.547l4.649-.436"/></svg>