<svg xmlns="http://www.w3.org/2000/svg" width="92" height="30" fill="none"><path fill="#CED3D9" d="M11.32 0h.816c2.838.062 5.629 1.203 7.634 3.223-.74.756-1.496 1.48-2.221 2.236-1.126-1.018-2.483-1.804-3.963-2.082-2.19-.463-4.55-.046-6.384 1.203C5.197 5.89 3.84 8.11 3.547 10.486c-.324 2.344.34 4.811 1.866 6.63a8.254 8.254 0 0 0 6.014 2.962c2.159.123 4.41-.54 5.983-2.051 1.234-1.064 1.805-2.684 1.99-4.256-2.56 0-5.12.015-7.68 0v-3.177H22.5c.555 3.408-.247 7.248-2.837 9.684-1.727 1.727-4.118 2.745-6.554 2.945-2.36.232-4.796-.215-6.893-1.357C3.7 20.525 1.697 18.258.71 15.59c-.925-2.452-.94-5.227-.077-7.695a11.74 11.74 0 0 1 4.24-5.628C6.74.894 9.006.139 11.32 0ZM73.156.802h3.3v22.02c-1.095 0-2.206.016-3.3-.015.015-7.325 0-14.665 0-22.005ZM29.84 8.435c2.035-.386 4.24.046 5.92 1.264a7.243 7.243 0 0 1 2.915 4.627c.417 2.143-.108 4.487-1.496 6.183-1.495 1.897-3.947 2.915-6.338 2.76-2.19-.123-4.317-1.218-5.613-3.006-1.465-1.974-1.82-4.688-1.017-7.001.802-2.483 3.068-4.38 5.628-4.827Zm.462 2.93a4.146 4.146 0 0 0-2.16 1.372c-1.495 1.79-1.402 4.704.248 6.369.94.956 2.359 1.403 3.67 1.141 1.218-.216 2.282-1.033 2.868-2.113 1.018-1.835.725-4.364-.833-5.798-1.002-.925-2.467-1.31-3.793-.971ZM46.185 8.435c2.328-.447 4.873.2 6.615 1.835 2.838 2.545 3.146 7.31.725 10.24-1.465 1.85-3.84 2.868-6.183 2.76-2.236-.062-4.441-1.172-5.768-3.007-1.495-2.02-1.82-4.796-.971-7.156.848-2.405 3.069-4.24 5.582-4.672Zm.463 2.93a4.216 4.216 0 0 0-2.16 1.357c-1.48 1.758-1.418 4.626.17 6.307.941 1.002 2.406 1.496 3.763 1.218a4.23 4.23 0 0 0 2.868-2.112c1.003-1.85.71-4.38-.863-5.814a4.134 4.134 0 0 0-3.778-.956ZM60.048 9.33c1.773-1.11 4.133-1.42 6.045-.463.601.262 1.095.71 1.573 1.156.015-.416 0-.848.015-1.28 1.034.016 2.067 0 3.115.016v13.6c-.015 2.052-.54 4.226-2.02 5.722-1.619 1.65-4.102 2.159-6.338 1.82-2.39-.355-4.472-2.098-5.397-4.303.925-.447 1.897-.802 2.853-1.218.54 1.264 1.635 2.344 3.007 2.59 1.372.247 2.96-.092 3.855-1.233.956-1.172.956-2.776.91-4.21-.71.694-1.527 1.31-2.514 1.542-2.143.602-4.502-.139-6.153-1.588-1.665-1.45-2.652-3.686-2.56-5.906.047-2.514 1.466-4.935 3.61-6.246Zm3.192 1.973c-.94.154-1.82.679-2.42 1.403-1.45 1.728-1.45 4.488.015 6.184.832 1.002 2.174 1.558 3.47 1.419 1.217-.123 2.343-.895 2.944-1.959 1.018-1.804.849-4.256-.524-5.829a3.795 3.795 0 0 0-3.485-1.218ZM80.419 10.116c1.85-1.727 4.703-2.313 7.078-1.403 2.251.848 3.685 2.991 4.41 5.196-3.346 1.388-6.677 2.76-10.023 4.148.462.88 1.172 1.681 2.128 2.005 1.341.478 2.945.308 4.07-.586.448-.34.803-.786 1.142-1.218.848.57 1.696 1.126 2.544 1.696-1.203 1.804-3.223 3.069-5.397 3.27-2.406.292-4.965-.633-6.523-2.514-2.56-2.961-2.313-7.926.57-10.594Zm1.65 2.853c-.525.755-.74 1.68-.725 2.59 2.236-.925 4.472-1.85 6.708-2.79-.37-.864-1.265-1.389-2.175-1.527-1.464-.263-2.991.524-3.808 1.727Z"/></svg>