<svg xmlns="http://www.w3.org/2000/svg" width="125" height="28" fill="none"><g fill="#CED3D9" clip-path="url(#a)"><path d="m20.748 27.456-8.153-.15c-2.64-.051-5.286.052-7.874-.486C.784 26.016.505 22.072.213 18.765c-.402-4.65-.246-9.386.513-13.997C1.154 2.18 2.84.636 5.448.468c8.801-.61 17.66-.539 26.443-.253.927.026 1.861.168 2.776.33 4.514.792 4.624 5.26 4.916 9.022.292 3.801.169 7.621-.389 11.396-.447 3.127-1.304 5.747-4.916 6-4.527.33-8.95.596-13.491.512 0-.02-.026-.02-.039-.02Zm-4.793-7.913c3.411-1.959 6.758-3.885 10.15-5.831-3.418-1.959-6.758-3.885-10.15-5.83v11.66ZM105.189 23.9c-.155.636-.292 1.136-.428 1.667h-3.191V.953h3.723v9.08c.195-.246.292-.35.376-.46.636-.876 1.46-1.446 2.523-1.667 1.693-.33 3.14.415 3.652 2.043.331 1.012.545 2.095.571 3.152.052 2.718.013 5.43-.085 8.147-.039.83-.292 1.68-.609 2.458-1.045 2.568-4.456 2.957-6.149.733-.104-.136-.201-.286-.383-.538Zm.182-6.77v4.5c0 .733.389 1.18 1.122 1.35.72.168 1.304-.11 1.596-.779.123-.279.246-.57.252-.863.072-2.75.137-5.5.156-8.256 0-.513-.123-1.044-.279-1.544-.292-.901-1.096-1.167-1.887-.642-.597.402-.96.973-.96 1.732v4.501ZM95.253 8.255h3.898V25.58h-3.042c-.11-.655-.22-1.33-.35-2.12-.208.304-.331.499-.46.693-1.013 1.46-2.446 1.96-4.139 1.693-1.446-.233-2.315-1.349-2.51-3.178a15.44 15.44 0 0 1-.084-1.64c-.013-4.055 0-8.121 0-12.175v-.61h3.943v.707c0 3.918-.013 7.829.013 11.746 0 .558.059 1.135.156 1.693.11.571.525.779 1.083.74.902-.072 1.524-.74 1.524-1.635V9.022c-.032-.253-.032-.487-.032-.766Zm-26.84-.013h3.918v.733c0 3.898-.013 7.79.013 11.675 0 .558.052 1.135.169 1.68.15.642.525.85 1.167.765.89-.123 1.427-.74 1.434-1.64V8.268h3.898V25.58h-3.029c-.11-.642-.22-1.303-.363-2.14-.195.292-.305.46-.415.636-1.012 1.485-2.433 2.03-4.164 1.764-1.388-.208-2.238-1.233-2.497-2.912a11.639 11.639 0 0 1-.124-1.57c-.013-4.21-.013-8.438-.013-12.648l.007-.467Zm-2.01 9.25c-.013.583-.052 1.167-.084 1.75-.15 1.752-.22 4.236-1.635 5.514-.901.804-2.043 1.096-3.223 1.135-.525.013-1.057.013-1.583-.059-2.484-.376-3.638-1.472-4.053-4.203-.474-3.152-.513-6.356.052-9.508.583-3.262 2.594-4.417 5.72-4.203 2.919.208 4.223 2.121 4.566 4.845.188 1.563.28 3.146.24 4.728Zm-3.97-.597c0-1.11.027-2.225-.012-3.334-.026-.642-.11-1.29-.247-1.926-.155-.733-.622-1.084-1.206-1.07-.57.012-.973.362-1.18 1.044-.072.253-.15.512-.15.765 0 1.738-.013 3.483-.026 5.221-.013 1.622-.22 3.32.292 4.871.156.474.558.733 1.083.733.513 0 .85-.253 1.038-.707.15-.35.28-.733.28-1.11.044-1.49.129-2.99.129-4.487Zm-12.329-3.263c.344-1.68.668-3.32 1.025-4.968.447-2.095.947-4.19 1.388-6.291.11-.513.318-.636.804-.623 1.044.039 2.108.013 3.224.013-.364 1.336-.72 2.607-1.07 3.859-1.11 3.93-2.219 7.874-3.315 11.817a3.643 3.643 0 0 0-.123.96c-.013 2.154 0 4.3 0 6.454v.7H48.23c-.013-.194-.04-.389-.04-.583 0-1.22-.097-2.446.014-3.652.279-2.9-.642-5.565-1.388-8.263-.986-3.567-1.985-7.148-2.97-10.715-.053-.169-.072-.35-.124-.558h3.885c.817 3.937 1.64 7.874 2.497 11.85Zm74.491 4.52h-6.563c.071 1.318.097 2.57.233 3.808.097.863.571 1.233 1.317 1.239.778.013 1.232-.376 1.414-1.232.058-.28.097-.558.123-.843.026-.253.039-.526.058-.89 1.109.06 2.192.124 3.263.17.622 1.848-.5 4.222-2.387 4.955-1.485.584-3.01.584-4.527.136-1.122-.33-1.959-1.044-2.335-2.14-.351-1.025-.681-2.095-.753-3.166-.194-2.64-.266-5.305.136-7.951.072-.441.195-.863.331-1.291.545-1.764 1.732-2.847 3.568-3.029.998-.097 2.03-.058 3.016.11 1.595.28 2.445 1.427 2.814 2.932.169.707.292 1.433.318 2.153.007 1.654-.026 3.295-.026 5.04Zm-3.729-2.276c0-1.303.013-2.53-.013-3.761 0-.292-.11-.597-.221-.876-.22-.545-.681-.694-1.232-.694-.551 0-.902.279-1.038.778-.415 1.498-.279 3.03-.266 4.566.993-.013 1.894-.013 2.77-.013Z"/><path d="M82.022 4.943h-3.86V1.816h11.52v3.107h-3.834v20.632h-3.82L82.02 4.943Z"/></g><defs><clipPath id="a"><path fill="#fff" d="M0 0h124.615v27.481H0z"/></clipPath></defs></svg>