<svg xmlns="http://www.w3.org/2000/svg" width="43" height="41" fill="none"><path fill="#153CF5" fill-rule="evenodd" d="M6.348 4.4a.924.924 0 0 1 1.192-.535l10.031 3.81h.002a3.718 3.718 0 0 1 2.337 4.213l-.59 2.918v.001a3.717 3.717 0 0 1-2.725 2.876l-.005.001-3.413.852-1.98 4.932v.001a6.493 6.493 0 0 1-2.434 3l-.008.005-3.685 2.393a.924.924 0 1 1-1.007-1.55l3.68-2.39a4.645 4.645 0 0 0 1.737-2.144v-.002l2.157-5.372a.924.924 0 0 1 .634-.552l3.866-.965h.003a1.87 1.87 0 0 0 1.368-1.447v-.003l.59-2.918a1.87 1.87 0 0 0-.198-1.276M6.348 4.401a.924.924 0 0 0 .536 1.192Zm.536 1.192 10.035 3.811ZM17.9 10.248a1.87 1.87 0 0 0-.978-.842l-.003-.002M30.24 5.245c.41.305.495.884.19 1.293l-1.818 2.449a4.66 4.66 0 0 0-.68 4.251v.002l.482 1.425a.924.924 0 1 1-1.752.591l-.483-1.431a6.513 6.513 0 0 1 .949-5.94l1.819-2.449a.924.924 0 0 1 1.293-.19Z" clip-rule="evenodd"/><path fill="#153CF5" fill-rule="evenodd" d="M22.558 2.669a15.834 15.834 0 0 0-8.55-.294l-.177-.729.177.729A15.834 15.834 0 0 0 2.37 14.032l-.898-.218.898.218a15.834 15.834 0 0 0 5.017 15.69 15.833 15.833 0 0 0 7.737 3.65.924.924 0 0 1-.307 1.822A17.681 17.681 0 0 1 .572 13.597l.842.204-.842-.204A17.683 17.683 0 0 1 23.118.907l-.279.877.279-.877A17.684 17.684 0 0 1 35.19 14.788a.924.924 0 0 1-1.822.311 15.835 15.835 0 0 0-10.81-12.43Z" clip-rule="evenodd"/><path fill="#153CF5" fill-rule="evenodd" d="M21.72 25.1a.5.5 0 0 0-.5.5v12.823a.5.5 0 0 0 .5.5h18.522a.5.5 0 0 0 .5-.5V25.601a.5.5 0 0 0-.5-.5H21.72Zm-2.348.5a2.349 2.349 0 0 1 2.349-2.348h18.52a2.349 2.349 0 0 1 2.35 2.349v12.822a2.349 2.349 0 0 1-2.35 2.35h-18.52a2.349 2.349 0 0 1-2.35-2.35V25.601Z" clip-rule="evenodd"/><path fill="#153CF5" fill-rule="evenodd" d="M23.646 29.162c0-.51.414-.924.924-.924h12.823a.924.924 0 0 1 0 1.848H24.57a.924.924 0 0 1-.924-.924ZM23.646 34.861c0-.51.414-.924.924-.924h12.823a.924.924 0 0 1 0 1.849H24.57a.924.924 0 0 1-.924-.925ZM29.159 18.977a2.35 2.35 0 0 0-1.373.444Zm0 1.849a.5.5 0 0 0-.475.342l-.695 2.084h5.984l-.694-2.084a.502.502 0 0 0-.475-.342h-3.646Zm0-1.849h3.645a2.35 2.35 0 0 1 2.228 1.606l1.1 3.3a.924.924 0 0 1-.877 1.217h-8.548a.924.924 0 0 1-.877-1.216l1.1-3.3c.156-.468.456-.875.856-1.163M23.146 21.827c.51 0 .924.414.924.924v1.425a.924.924 0 0 1-1.849 0v-1.425c0-.51.414-.924.925-.924ZM38.817 21.827c.51 0 .924.414.924.924v1.425a.924.924 0 0 1-1.848 0v-1.425c0-.51.414-.924.924-.924Z" clip-rule="evenodd"/></svg>