<svg xmlns="http://www.w3.org/2000/svg" width="27" height="22" fill="none"><path fill="#1DA1F2" d="M18.04.005V0h1.267l.462.093c.309.06.589.139.84.237.252.097.495.211.73.341.236.13.45.263.64.398.19.134.361.276.512.425.15.152.382.19.699.118a9.328 9.328 0 0 0 1.022-.306c.366-.13.727-.276 1.084-.44.357-.162.574-.265.652-.31l.122-.073.005-.007.024-.012.024-.012.025-.012.024-.013.005-.007.007-.005.008-.005.005-.007.024-.007.024-.005-.005.036-.007.037-.012.037-.012.036-.012.025-.013.024-.012.037a.848.848 0 0 0-.024.097c-.008.041-.085.204-.231.489a6.114 6.114 0 0 1-.548.866c-.22.293-.416.515-.59.665a5.621 5.621 0 0 0-.348.317 1.045 1.045 0 0 1-.207.171l-.121.08-.025.013-.024.012-.005.007-.007.005-.007.005-.005.007-.025.013-.024.012-.005.007-.007.005-.007.005-.005.007-.005.008-.008.004-.007.005-.005.008h.122l.682-.147a12.17 12.17 0 0 0 1.302-.354l.658-.22.073-.024.036-.012.025-.013.024-.012.024-.012.025-.012.048-.007.049-.005v.048l-.012.005-.012.008-.005.007-.008.005-.007.005-.005.007-.005.007-.007.005-.007.005-.005.008-.005.007-.007.005-.012.024-.013.025-.007.004c-.003.005-.106.144-.31.416-.202.273-.311.411-.328.415-.016.005-.039.029-.068.073-.027.045-.2.227-.516.544-.317.318-.627.6-.93.848-.305.249-.46.555-.463.918-.005.361-.023.77-.056 1.226-.032.455-.093.948-.182 1.477-.09.529-.228 1.127-.414 1.794a16.358 16.358 0 0 1-.682 1.954 15.22 15.22 0 0 1-.84 1.709c-.292.505-.56.932-.803 1.282-.244.35-.491.68-.743.989-.251.31-.57.657-.954 1.045-.386.386-.597.597-.633.635-.037.036-.196.17-.477.4-.28.233-.58.466-.901.698-.32.232-.614.425-.881.58-.268.154-.591.33-.97.53-.376.2-.783.385-1.222.556-.438.17-.9.33-1.387.476-.487.146-.958.26-1.412.342-.455.081-.97.15-1.546.207l-.865.086V22H7.718v-.012l-.207-.012a11.074 11.074 0 0 1-.341-.025c-.09-.008-.426-.053-1.01-.134a14.542 14.542 0 0 1-1.376-.244 18.21 18.21 0 0 1-1.485-.464 14.44 14.44 0 0 1-1.687-.691 66.77 66.77 0 0 1-.877-.44 6.215 6.215 0 0 1-.394-.224l-.22-.135-.004-.007-.007-.005-.008-.005-.005-.007-.024-.012-.024-.012-.005-.008-.007-.005-.008-.005-.005-.007-.004-.007-.008-.005H0v-.049l.024.005.025.007.11.012c.072.009.271.02.596.037a11.011 11.011 0 0 0 2.154-.11c.382-.057.832-.154 1.352-.293.519-.138.996-.303 1.431-.493.434-.192.742-.335.925-.43.182-.093.46-.265.833-.517l.56-.379.005-.007.007-.005.007-.005.005-.007.005-.008.007-.005.008-.004.005-.008.024-.007.024-.005.005-.024.007-.025.008-.005.005-.007-.195-.012a91.07 91.07 0 0 1-.377-.025 3.662 3.662 0 0 1-.573-.11 5.48 5.48 0 0 1-.84-.293c-.3-.13-.592-.284-.876-.463a4.319 4.319 0 0 1-.616-.447 10.675 10.675 0 0 1-.487-.498 4.939 4.939 0 0 1-.516-.667 5.993 5.993 0 0 1-.419-.789l-.202-.444-.012-.037-.012-.036-.008-.025-.004-.024.036.005.037.007.267.037c.179.024.459.032.84.024.382-.008.646-.024.792-.049.146-.024.235-.04.267-.049l.05-.012.06-.012.06-.012.006-.008.007-.004.007-.005.005-.008-.048-.012-.05-.012-.048-.012-.049-.012-.048-.013a4.42 4.42 0 0 1-.17-.049 9.28 9.28 0 0 1-.658-.268 5.02 5.02 0 0 1-.852-.452 5.884 5.884 0 0 1-.604-.48 6.903 6.903 0 0 1-.626-.68 4.884 4.884 0 0 1-.608-.964 5.875 5.875 0 0 1-.402-1.05 5.683 5.683 0 0 1-.175-1.013l-.044-.513.024.005.025.007.024.012.024.013.025.012.024.012.377.17c.252.115.564.212.938.294.373.081.596.126.67.134l.109.012h.219L3.5 8.38l-.007-.005-.008-.005-.004-.007-.005-.007-.008-.005-.007-.005-.005-.007-.024-.013-.025-.012-.004-.007-.008-.005-.007-.005-.005-.007-.024-.013-.025-.012-.004-.007a30.755 30.755 0 0 1-.21-.156 3.197 3.197 0 0 1-.419-.398 14.365 14.365 0 0 1-.438-.513 3.96 3.96 0 0 1-.39-.574 6.965 6.965 0 0 1-.36-.776 5.523 5.523 0 0 1-.394-1.885c-.008-.31 0-.574.024-.794a5.2 5.2 0 0 1 .146-.745c.073-.276.179-.57.317-.879l.207-.464.012-.036L1.838 1l.007-.005L1.85.99l.005-.007.007-.005.008.005.005.007.005.007.007.005.007.005.005.007.005.008.007.005.012.024.013.024.007.005.005.008.328.366c.22.244.48.517.78.818.3.301.466.457.499.469.032.013.073.05.121.112.049.06.211.204.487.432s.637.493 1.084.794c.446.3.941.598 1.485.89.543.294 1.128.558 1.753.794.625.237 1.063.391 1.314.464.252.074.682.167 1.29.281.61.114 1.068.187 1.376.22.309.033.52.051.633.056l.17.005-.004-.037-.007-.036-.05-.305a5.764 5.764 0 0 1-.048-.855c0-.366.029-.704.085-1.013.057-.31.142-.623.256-.94a5.03 5.03 0 0 1 .334-.765c.11-.19.254-.407.433-.652.178-.244.41-.496.694-.757.284-.26.608-.492.974-.695a6.321 6.321 0 0 1 1.01-.464c.308-.106.568-.175.78-.208.21-.033.316-.051.316-.056Z"/></svg>