<svg xmlns="http://www.w3.org/2000/svg" width="26" height="26" fill="none"><path fill="url(#a)" d="M6.593 25.908c-1.546-.07-2.386-.328-2.945-.546a4.927 4.927 0 0 1-1.824-1.186 4.89 4.89 0 0 1-1.186-1.822c-.218-.56-.475-1.4-.545-2.945C.015 17.737 0 17.236 0 13c0-4.234.017-4.735.092-6.408.07-1.546.33-2.385.546-2.945a4.946 4.946 0 0 1 1.186-1.824A4.896 4.896 0 0 1 3.647.638C4.206.42 5.046.162 6.592.092 8.264.015 8.767 0 13 0c4.234 0 4.735.017 6.408.092 1.546.07 2.384.33 2.945.546.74.286 1.268.63 1.823 1.186a4.91 4.91 0 0 1 1.187 1.823c.217.559.475 1.399.545 2.945C25.984 8.265 26 8.766 26 13c0 4.233-.015 4.736-.092 6.409-.07 1.546-.33 2.386-.546 2.945a4.918 4.918 0 0 1-1.186 1.822 4.921 4.921 0 0 1-1.823 1.187c-.559.217-1.399.475-2.945.545-1.672.076-2.174.092-6.408.092-4.233 0-4.736-.015-6.407-.092"/><path fill="url(#b)" d="M6.593 25.908c-1.546-.07-2.386-.328-2.945-.546a4.927 4.927 0 0 1-1.824-1.186 4.89 4.89 0 0 1-1.186-1.822c-.218-.56-.475-1.4-.545-2.945C.015 17.737 0 17.236 0 13c0-4.234.017-4.735.092-6.408.07-1.546.33-2.385.546-2.945a4.946 4.946 0 0 1 1.186-1.824A4.896 4.896 0 0 1 3.647.638C4.206.42 5.046.162 6.592.092 8.264.015 8.767 0 13 0c4.234 0 4.735.017 6.408.092 1.546.07 2.384.33 2.945.546.74.286 1.268.63 1.823 1.186a4.91 4.91 0 0 1 1.187 1.823c.217.559.475 1.399.545 2.945C25.984 8.265 26 8.766 26 13c0 4.233-.015 4.736-.092 6.409-.07 1.546-.33 2.386-.546 2.945a4.918 4.918 0 0 1-1.186 1.822 4.921 4.921 0 0 1-1.823 1.187c-.559.217-1.399.475-2.945.545-1.672.076-2.174.092-6.408.092-4.233 0-4.736-.015-6.407-.092"/><path fill="#fff" d="M9.808 13.056a3.22 3.22 0 1 1 6.439-.001 3.22 3.22 0 0 1-6.44 0Zm-1.74 0a4.96 4.96 0 1 0 9.918 0 4.96 4.96 0 0 0-9.919 0Zm8.956-5.157a1.159 1.159 0 1 0 1.16-1.159 1.16 1.16 0 0 0-1.16 1.16Zm-7.9 13.019c-.941-.043-1.453-.2-1.793-.332a3.003 3.003 0 0 1-1.111-.723 2.98 2.98 0 0 1-.723-1.11c-.132-.34-.289-.852-.332-1.794-.047-1.018-.056-1.324-.056-3.903 0-2.58.01-2.885.056-3.904.043-.941.201-1.452.332-1.793.176-.451.385-.773.723-1.111.338-.339.66-.548 1.111-.723.34-.133.852-.29 1.794-.332 1.018-.047 1.324-.056 3.902-.056 2.578 0 2.885.01 3.903.056.942.043 1.453.2 1.794.332.451.175.773.385 1.111.723.338.338.547.66.723 1.11.132.34.29.853.332 1.794.047 1.02.056 1.325.056 3.904 0 2.58-.01 2.884-.056 3.903-.043.942-.2 1.454-.332 1.794-.176.451-.385.773-.723 1.11a3 3 0 0 1-1.11.723c-.34.132-.853.29-1.795.332-1.018.047-1.323.056-3.903.056s-2.884-.01-3.902-.056Zm-.08-17.463c-1.027.047-1.73.21-2.344.449a4.74 4.74 0 0 0-1.71 1.114 4.716 4.716 0 0 0-1.115 1.71c-.239.615-.402 1.317-.449 2.345-.047 1.03-.058 1.36-.058 3.983s.01 2.952.058 3.982c.047 1.028.21 1.73.45 2.344a4.722 4.722 0 0 0 1.113 1.711A4.747 4.747 0 0 0 6.7 22.208c.615.238 1.317.401 2.345.448 1.03.047 1.359.059 3.982.059s2.952-.011 3.982-.059c1.029-.047 1.73-.21 2.345-.448a4.75 4.75 0 0 0 1.71-1.115 4.731 4.731 0 0 0 1.115-1.71c.239-.615.403-1.317.449-2.345.046-1.03.057-1.36.057-3.982 0-2.623-.01-2.953-.057-3.983-.047-1.028-.21-1.73-.449-2.344a4.75 4.75 0 0 0-1.114-1.711 4.727 4.727 0 0 0-1.71-1.114c-.615-.24-1.317-.403-2.345-.449-1.03-.047-1.36-.059-3.982-.059-2.623 0-2.952.011-3.983.059"/><defs><radialGradient id="a" cx="0" cy="0" r="1" gradientTransform="translate(1.683 25.43) scale(33.0103)" gradientUnits="userSpaceOnUse"><stop offset=".09" stop-color="#FA8F21"/><stop offset=".78" stop-color="#D82D7E"/></radialGradient><radialGradient id="b" cx="0" cy="0" r="1" gradientTransform="translate(18.01 24.596) scale(29.0494)" gradientUnits="userSpaceOnUse"><stop offset=".64" stop-color="#8C3AAA" stop-opacity="0"/><stop offset="1" stop-color="#8C3AAA"/></radialGradient></defs></svg>