<svg xmlns="http://www.w3.org/2000/svg" width="18" height="22" fill="none"><path fill="#153CF5" fill-rule="evenodd" d="M8.975 5.523a3.452 3.452 0 1 0 0 6.905 3.452 3.452 0 0 0 0-6.905ZM4.143 8.975a4.833 4.833 0 1 1 9.665 0 4.833 4.833 0 0 1-9.665 0Z" clip-rule="evenodd"/><path fill="#153CF5" fill-rule="evenodd" d="M8.975 1.38a7.595 7.595 0 0 0-7.594 7.595c0 3.42 1.497 6.102 3.214 8.058a17.877 17.877 0 0 0 4.38 3.586 17.862 17.862 0 0 0 4.38-3.585c1.718-1.956 3.215-4.639 3.215-8.059a7.594 7.594 0 0 0-7.595-7.594ZM2.63 2.63A8.975 8.975 0 0 1 17.95 8.975c0 3.853-1.694 6.846-3.558 8.97a19.243 19.243 0 0 1-4.734 3.873 1.38 1.38 0 0 1-1.368 0 19.257 19.257 0 0 1-4.734-3.874C1.693 15.82 0 12.827 0 8.975c0-2.38.946-4.663 2.629-6.346Z" clip-rule="evenodd"/></svg>