<svg xmlns="http://www.w3.org/2000/svg" width="22" height="22" fill="none"><path fill="#153CF5" fill-rule="evenodd" d="M11 1.375a9.625 9.625 0 1 0 0 19.25 9.625 9.625 0 0 0 0-19.25ZM0 11C0 4.925 4.925 0 11 0s11 4.925 11 11-4.925 11-11 11S0 17.075 0 11Z" clip-rule="evenodd"/><path fill="#153CF5" fill-rule="evenodd" d="M11.526 7.667A1.375 1.375 0 1 0 11 10.313a2.75 2.75 0 1 1-2.75 2.75.688.688 0 0 1 1.375 0A1.375 1.375 0 1 0 11 11.687a2.75 2.75 0 1 1 2.75-2.75.687.687 0 1 1-1.375 0 1.375 1.375 0 0 0-.849-1.27Z" clip-rule="evenodd"/><path fill="#153CF5" fill-rule="evenodd" d="M11 4.813c.38 0 .688.307.688.687v1.375a.687.687 0 1 1-1.376 0V5.5c0-.38.308-.688.688-.688ZM11 14.438c.38 0 .688.307.688.687V16.5a.687.687 0 1 1-1.376 0v-1.375c0-.38.308-.688.688-.688Z" clip-rule="evenodd"/></svg>