<svg xmlns="http://www.w3.org/2000/svg" width="22" height="22" fill="none"><path fill="#153CF5" fill-rule="evenodd" d="M11 1.75a9.25 9.25 0 1 0 0 18.5 9.25 9.25 0 0 0 0-18.5ZM.25 11C.25 5.063 5.063.25 11 .25S21.75 5.063 21.75 11 16.937 21.75 11 21.75.25 16.937.25 11Z" clip-rule="evenodd"/><path fill="#153CF5" fill-rule="evenodd" d="M11 6.679a.75.75 0 0 1 .75.75V11a.75.75 0 0 1-1.5 0V7.429a.75.75 0 0 1 .75-.75Z" clip-rule="evenodd"/><path fill="#153CF5" fill-rule="evenodd" d="M10.47 10.47a.75.75 0 0 1 1.06 0l4.464 4.464a.75.75 0 1 1-1.06 1.061L10.47 11.53a.75.75 0 0 1 0-1.06Z" clip-rule="evenodd"/></svg>