<svg xmlns="http://www.w3.org/2000/svg" width="80" height="80" fill="none"><path fill="#fff" d="M0 0h80v80H0z"/><path fill="#4253FF" d="M51.914 32.938s-3.884 12.529-4.199 13.563c-.115-1.064-2.963-23.55-2.963-23.55-6.616 0-10.165 4.846-12.022 9.958 0 0-4.716 12.558-5.12 13.622-.029-.976-.72-13.474-.72-13.474-.389-6.265-5.98-10.076-10.496-10.076l5.463 34.069c6.931-.03 10.67-4.846 12.626-9.958 0 0 4.17-11.08 4.332-11.583.04.473 2.992 21.54 2.992 21.54 6.96 0 10.699-4.52 12.706-9.455l9.75-24.613c-6.862 0-10.48 4.816-12.349 9.957Z"/></svg>