<svg xmlns="http://www.w3.org/2000/svg" width="80" height="80" fill="none"><path fill="#fff" d="M0 0h80v80H0z"/><path fill="#fff" d="M0 0h80v80H0z"/><path fill="#0189FF" fill-rule="evenodd" d="M24.835 63.154v-8.617c-5.397-4.107-8.843-10.362-8.843-17.367 0-12.372 10.749-22.4 24.008-22.4 13.26 0 24.008 10.029 24.008 22.4 0 12.37-10.748 22.4-24.008 22.4-2.474 0-4.861-.35-7.107-.997l-8.058 4.581Zm-.346-18.41 12.947-13.71 6.215 6.352 11.652-6.351L42.43 44.743l-6.157-6.465-11.783 6.465Z" clip-rule="evenodd"/></svg>