<svg xmlns="http://www.w3.org/2000/svg" width="80" height="80" fill="none"><path fill="#fff" d="M0 0h80v80H0z"/><path fill="#fff" d="M47.4 22.008V22h2.063l.753.152c.503.098.96.228 1.37.387a9.7 9.7 0 0 1 1.19.56c.383.213.73.43 1.043.651.31.218.587.45.833.695.243.248.623.312 1.139.192s1.071-.286 1.666-.5a22.303 22.303 0 0 0 1.766-.719c.582-.266.936-.435 1.063-.507l.198-.12.008-.012.04-.02.04-.02.04-.02.039-.02.008-.012.012-.008.012-.008.008-.012.04-.012.04-.008-.009.06-.012.06-.02.06-.02.06-.02.04-.02.04-.019.06c-.013.04-.026.093-.04.16-.013.066-.139.333-.377.799a10 10 0 0 1-.892 1.418c-.357.48-.677.842-.96 1.087-.286.248-.475.42-.568.52a1.701 1.701 0 0 1-.337.28l-.198.131-.04.02-.04.02-.008.012-.012.008-.012.008-.007.012-.04.02-.04.02-.008.012-.012.008-.012.008-.007.012-.008.012-.012.008-.012.008-.008.012h.198l1.111-.24c.74-.16 1.448-.353 2.123-.58l1.071-.359.12-.04.059-.02.04-.02.039-.02.04-.02.04-.02.079-.012.079-.008v.08l-.02.008-.02.012-.008.012-.011.008-.012.008-.008.012-.008.012-.012.008-.012.008-.008.012-.008.012-.012.008-.02.04-.02.04-.011.008-.504.68c-.33.447-.51.673-.536.678-.026.008-.063.048-.111.12-.045.075-.325.372-.841.891-.516.52-1.021.982-1.516 1.387-.497.407-.748.908-.754 1.502-.008.591-.038 1.26-.09 2.006a25.568 25.568 0 0 1-.298 2.417c-.146.866-.37 1.845-.675 2.937a26.827 26.827 0 0 1-1.11 3.196 24.98 24.98 0 0 1-1.37 2.797 30.386 30.386 0 0 1-1.309 2.098c-.397.573-.8 1.112-1.21 1.618-.41.506-.928 1.076-1.555 1.71-.63.631-.974.978-1.032 1.04-.06.058-.32.276-.777.654-.455.381-.945.762-1.468 1.143-.522.378-1 .694-1.437.947-.436.253-.962.542-1.579.867-.613.328-1.277.631-1.991.911-.715.28-1.468.54-2.262.78-.793.239-1.56.425-2.301.559-.74.133-1.58.246-2.52.34l-1.408.139V58h-2.579v-.02l-.337-.02c-.225-.013-.41-.027-.556-.04a65.77 65.77 0 0 1-1.646-.22c-.952-.133-1.7-.266-2.242-.4-.542-.132-1.349-.386-2.42-.758-1.071-.373-1.988-.75-2.75-1.131-.759-.378-1.235-.618-1.428-.72-.19-.098-.404-.22-.643-.367l-.357-.22-.008-.012-.012-.008-.011-.008-.008-.012-.04-.02-.04-.02-.008-.012-.012-.008-.011-.008-.008-.012-.008-.012-.012-.008H18v-.08l.04.009.04.012.178.02c.119.013.443.033.972.06a17.81 17.81 0 0 0 3.511-.18 20.465 20.465 0 0 0 2.202-.48 16.193 16.193 0 0 0 2.333-.807 32.391 32.391 0 0 0 1.508-.703c.296-.152.748-.434 1.357-.847l.912-.62.008-.011.012-.009.012-.008.008-.011.008-.012.012-.008.012-.008.008-.012.04-.012.039-.008.008-.04.012-.04.012-.008.008-.012-.318-.02a148.11 148.11 0 0 1-.615-.04c-.198-.014-.509-.073-.932-.18a8.914 8.914 0 0 1-1.369-.48 10.53 10.53 0 0 1-1.428-.759c-.463-.293-.798-.536-1.004-.73a17.525 17.525 0 0 1-.794-.816 8.083 8.083 0 0 1-.84-1.09 9.835 9.835 0 0 1-.683-1.291l-.33-.727-.02-.06-.02-.06-.011-.04-.008-.04.06.008.06.012.436.06c.29.04.747.053 1.368.04.622-.014 1.052-.04 1.29-.08s.383-.067.436-.08l.08-.02.099-.02.099-.02.008-.012.012-.008.012-.008.008-.012-.08-.02-.08-.02-.078-.02-.08-.02-.08-.02a7.149 7.149 0 0 1-.277-.08c-.132-.04-.49-.186-1.071-.44-.582-.252-1.045-.499-1.389-.739a9.578 9.578 0 0 1-.984-.787c-.31-.287-.649-.658-1.02-1.11a8 8 0 0 1-.991-1.579 9.635 9.635 0 0 1-.655-1.718 9.335 9.335 0 0 1-.285-1.658l-.072-.839.04.008.04.012.04.02.039.02.04.02.04.02.614.28c.41.186.92.346 1.528.479s.972.206 1.09.22l.18.02h.356l-.008-.012-.012-.008-.012-.008-.007-.012-.008-.012-.012-.008-.012-.008-.008-.012-.04-.02-.04-.02-.007-.012-.012-.008-.012-.008-.008-.012-.04-.02-.04-.02-.007-.012c-.008-.005-.122-.09-.342-.256a5.214 5.214 0 0 1-.682-.651 23.473 23.473 0 0 1-.714-.84 6.477 6.477 0 0 1-.635-.938c-.185-.333-.38-.757-.587-1.27a9.073 9.073 0 0 1-.643-3.085 9.77 9.77 0 0 1 .04-1.299c.04-.36.119-.766.238-1.218.119-.453.29-.933.516-1.439l.337-.759.02-.06.02-.06.011-.008.008-.012.008-.012.012-.008.012.008.008.012.008.012.012.008.012.008.008.012.008.012.011.008.02.04.02.04.012.008.008.012.536.6c.357.399.78.845 1.27 1.338.489.493.76.748.813.767.053.021.119.083.198.184.08.098.344.334.794.707.45.373 1.038.806 1.765 1.299a28.54 28.54 0 0 0 2.42 1.458c.886.48 1.839.912 2.857 1.299 1.018.386 1.732.639 2.142.759.41.12 1.111.273 2.103.46.992.186 1.74.306 2.242.359.502.053.846.084 1.031.092l.278.008-.008-.06-.012-.06-.08-.5c-.052-.333-.079-.799-.079-1.398 0-.6.047-1.152.14-1.658A9.879 9.879 0 0 1 40 27.894c.185-.52.366-.937.544-1.251.18-.312.415-.667.706-1.067a8.6 8.6 0 0 1 1.13-1.239 8.344 8.344 0 0 1 1.587-1.138 10.276 10.276 0 0 1 1.647-.76 7.624 7.624 0 0 1 1.27-.34c.343-.052.516-.083.516-.091Z"/><path fill="#4285F4" d="M62 39.632c0-1.919-.156-3.319-.493-4.77h-21.91v8.66h12.861c-.26 2.151-1.66 5.392-4.77 7.57l-.044.29 6.927 5.367.48.048C59.459 52.726 62 46.737 62 39.632"/><path fill="#34A853" d="M39.598 62.449c6.3 0 11.59-2.075 15.454-5.653l-7.364-5.704c-1.97 1.374-4.615 2.334-8.09 2.334-6.17 0-11.408-4.071-13.275-9.698l-.274.024-7.203 5.574-.094.262c3.837 7.623 11.72 12.86 20.846 12.86Z"/><path fill="#FBBC05" d="M26.323 43.73a14.364 14.364 0 0 1-.778-4.616c0-1.608.285-3.163.752-4.615l-.013-.31-7.294-5.664-.238.114a23.358 23.358 0 0 0-2.49 10.475c0 3.76.908 7.312 2.49 10.475l7.57-5.86"/><path fill="#EB4335" d="M39.598 24.8c4.382 0 7.338 1.893 9.023 3.475l6.586-6.43c-4.045-3.76-9.308-6.068-15.609-6.068-9.127 0-17.009 5.238-20.846 12.86l7.545 5.86c1.893-5.626 7.13-9.697 13.301-9.697"/></svg>