<svg xmlns="http://www.w3.org/2000/svg" width="80" height="80" fill="none"><path fill="#fff" d="M0 0h80v80H0z"/><path fill="url(#a)" d="M32.002 40a8 8 0 1 1 16 0 8 8 0 1 1-16 0Zm-4.325 0c0 6.806 5.518 12.324 12.324 12.324S52.325 46.806 52.325 40 46.807 27.676 40 27.676 27.677 33.194 27.677 40Zm22.256-12.812a2.88 2.88 0 1 0 2.88-2.88 2.881 2.881 0 0 0-2.88 2.88ZM30.305 59.535c-2.34-.106-3.612-.496-4.457-.825-1.12-.436-1.92-.956-2.76-1.795-.841-.84-1.361-1.639-1.796-2.759-.33-.845-.719-2.117-.825-4.457-.117-2.53-.14-3.29-.14-9.699s.025-7.167.14-9.699c.106-2.34.499-3.61.825-4.457.436-1.12.956-1.92 1.795-2.76.84-.84 1.639-1.361 2.761-1.795.845-.33 2.117-.72 4.457-.826 2.53-.116 3.29-.14 9.696-.14s7.167.026 9.699.14c2.34.107 3.61.5 4.457.826 1.12.434 1.92.955 2.76 1.795.84.84 1.36 1.64 1.795 2.76.33.845.72 2.117.826 4.457.117 2.532.14 3.29.14 9.7 0 6.408-.023 7.166-.14 9.698-.106 2.34-.498 3.612-.825 4.457-.437 1.12-.956 1.92-1.796 2.759-.84.838-1.64 1.359-2.76 1.795-.845.33-2.117.72-4.457.825-2.53.117-3.29.14-9.699.14-6.41 0-7.167-.023-9.696-.14Zm-.199-43.39c-2.555.117-4.3.522-5.825 1.115-1.58.613-2.916 1.435-4.252 2.768-1.335 1.334-2.155 2.673-2.768 4.252-.593 1.525-.998 3.27-1.115 5.825-.118 2.56-.145 3.377-.145 9.895s.027 7.336.145 9.895c.117 2.555.522 4.3 1.115 5.825.613 1.578 1.433 2.919 2.768 4.252 1.336 1.333 2.673 2.154 4.252 2.768 1.527.593 3.27.998 5.825 1.115 2.56.116 3.377.145 9.895.145s7.336-.027 9.895-.145c2.555-.117 4.3-.522 5.825-1.115 1.578-.614 2.916-1.435 4.252-2.768 1.335-1.334 2.154-2.674 2.768-4.252.593-1.525 1-3.27 1.115-5.825.116-2.561.143-3.377.143-9.895s-.027-7.336-.143-9.895c-.117-2.555-.522-4.3-1.115-5.825-.614-1.578-1.435-2.916-2.768-4.252-1.334-1.335-2.674-2.155-4.25-2.768-1.527-.593-3.272-1-5.825-1.115-2.56-.116-3.378-.145-9.895-.145-6.518 0-7.336.027-9.897.145Z"/><path fill="url(#b)" d="M32.002 40a8 8 0 1 1 16 0 8 8 0 1 1-16 0Zm-4.325 0c0 6.806 5.518 12.324 12.324 12.324S52.325 46.806 52.325 40 46.807 27.676 40 27.676 27.677 33.194 27.677 40Zm22.256-12.812a2.88 2.88 0 1 0 2.88-2.88 2.881 2.881 0 0 0-2.88 2.88ZM30.305 59.535c-2.34-.106-3.612-.496-4.457-.825-1.12-.436-1.92-.956-2.76-1.795-.841-.84-1.361-1.639-1.796-2.759-.33-.845-.719-2.117-.825-4.457-.117-2.53-.14-3.29-.14-9.699s.025-7.167.14-9.699c.106-2.34.499-3.61.825-4.457.436-1.12.956-1.92 1.795-2.76.84-.84 1.639-1.361 2.761-1.795.845-.33 2.117-.72 4.457-.826 2.53-.116 3.29-.14 9.696-.14s7.167.026 9.699.14c2.34.107 3.61.5 4.457.826 1.12.434 1.92.955 2.76 1.795.84.84 1.36 1.64 1.795 2.76.33.845.72 2.117.826 4.457.117 2.532.14 3.29.14 9.7 0 6.408-.023 7.166-.14 9.698-.106 2.34-.498 3.612-.825 4.457-.437 1.12-.956 1.92-1.796 2.759-.84.838-1.64 1.359-2.76 1.795-.845.33-2.117.72-4.457.825-2.53.117-3.29.14-9.699.14-6.41 0-7.167-.023-9.696-.14Zm-.199-43.39c-2.555.117-4.3.522-5.825 1.115-1.58.613-2.916 1.435-4.252 2.768-1.335 1.334-2.155 2.673-2.768 4.252-.593 1.525-.998 3.27-1.115 5.825-.118 2.56-.145 3.377-.145 9.895s.027 7.336.145 9.895c.117 2.555.522 4.3 1.115 5.825.613 1.578 1.433 2.919 2.768 4.252 1.336 1.333 2.673 2.154 4.252 2.768 1.527.593 3.27.998 5.825 1.115 2.56.116 3.377.145 9.895.145s7.336-.027 9.895-.145c2.555-.117 4.3-.522 5.825-1.115 1.578-.614 2.916-1.435 4.252-2.768 1.335-1.334 2.154-2.674 2.768-4.252.593-1.525 1-3.27 1.115-5.825.116-2.561.143-3.377.143-9.895s-.027-7.336-.143-9.895c-.117-2.555-.522-4.3-1.115-5.825-.614-1.578-1.435-2.916-2.768-4.252-1.334-1.335-2.674-2.155-4.25-2.768-1.527-.593-3.272-1-5.825-1.115-2.56-.116-3.378-.145-9.895-.145-6.518 0-7.336.027-9.897.145Z"/><defs><radialGradient id="a" cx="0" cy="0" r="1" gradientTransform="translate(22.378 64.227) scale(62.66)" gradientUnits="userSpaceOnUse"><stop offset=".09" stop-color="#FA8F21"/><stop offset=".78" stop-color="#D82D7E"/></radialGradient><radialGradient id="b" cx="0" cy="0" r="1" gradientTransform="translate(45.11 66.377) scale(49.3847)" gradientUnits="userSpaceOnUse"><stop offset=".64" stop-color="#8C3AAA" stop-opacity="0"/><stop offset="1" stop-color="#8C3AAA"/></radialGradient></defs></svg>